<?xml version="1.0" encoding="UTF-8"?>
<svg width="16px" height="16px" viewBox="0 0 16 16" version="1.1" xmlns="http://www.w3.org/2000/svg" xmlns:xlink="http://www.w3.org/1999/xlink">
    <title>6.图标/9.客服/自然语言</title>
    <g id="6.图标/9.客服/自然语言" stroke="none" stroke-width="1" fill="none" fill-rule="evenodd">
        <rect id="矩形" fill="#D8D8D8" opacity="0" x="0" y="0" width="16" height="16"></rect>
        <path d="M15,2 L15,12.043 L4.98,12.043 L1,14.043 L1,2 L15,2 Z M14,3 L2,3 L2,12.422 L4.531,11.15 L4.743,11.042 L14,11.042 L14,3 Z M5.5001,6.4797 L5.5001,7.4797 L4.5001,7.4797 L4.5001,6.4797 L5.5001,6.4797 Z M8.4511,6.4797 L8.4511,7.4797 L7.4501,7.4797 L7.4501,6.4797 L8.4511,6.4797 Z M11.5001,6.4797 L11.5001,7.4797 L10.5001,7.4797 L10.5001,6.4797 L11.5001,6.4797 Z" id="图标-填色" fill="#080E1A" opacity="0.5"></path>
    </g>
</svg>