<?xml version="1.0" encoding="UTF-8"?>
<svg width="226px" height="48px" viewBox="0 0 226 48" version="1.1" xmlns="http://www.w3.org/2000/svg" xmlns:xlink="http://www.w3.org/1999/xlink">
    <title>9.基础源件/1.导航/导航logo</title>
    <defs>
        <polygon id="path-1" points="0.137497905 0.116226786 14.28128 0.116226786 14.28128 9.48115536 0.137497905 9.48115536"></polygon>
        <polygon id="path-3" points="-2.91322522e-13 24 103.820328 24 103.820328 0 -2.91322522e-13 0"></polygon>
    </defs>
    <g id="9.基础源件/1.导航/导航logo" stroke="none" stroke-width="1" fill="none" fill-rule="evenodd">
        <g id="编组-2" transform="translate(16.000000, 11.945884)">
            <g id="编组" transform="translate(-0.000000, 0.000000)">
                <rect id="矩形" stroke="#979797" fill="#D8D8D8" opacity="0" x="0.5" y="0.554116071" width="103" height="23"></rect>
                <g id="Group-23-Copy-2" transform="translate(-0.000000, 0.000000)">
                    <path d="M50.4516678,4.53744286 L47.5446202,4.53744286 L47.5446202,5.324925 L41.5377783,5.324925 L41.5377783,17.2198536 C41.5377783,17.5488714 41.268765,17.8156214 40.9369554,17.8156214 L40.9369554,19.4628714 L41.5930469,19.4628714 C42.6023421,19.4628714 43.4202773,18.6516214 43.4202773,17.6508179 L43.4202773,7.19178214 L55.4951726,7.19178214 L55.4951726,5.324925 L50.4516678,5.324925 L50.4516678,4.53744286 Z" id="Fill-1" fill="#1D1D27"></path>
                    <path d="M52.6569432,10.2978286 C52.6569432,10.6213464 52.3924861,10.8835786 52.0662232,10.8835786 L46.8384899,10.8835786 L46.8384899,9.896525 L52.6569432,9.896525 L52.6569432,10.2978286 Z M54.5396404,7.73129286 L52.6569432,7.73129286 L52.6569432,8.36261429 L46.8384899,8.36261429 L46.8384899,7.73129286 L44.9559909,7.73129286 L44.9559909,8.36261429 L44.0570347,8.36261429 L44.0570347,9.896525 L44.9559909,9.896525 L44.9559909,12.7504357 L52.7124099,12.7504357 C53.721507,12.7504357 54.5396404,11.9391857 54.5396404,10.9385786 L54.5396404,9.896525 L55.4952518,9.896525 L55.4952518,8.36261429 L54.5396404,8.36261429 L54.5396404,7.73129286 Z" id="Fill-3" fill="#1D1D27"></path>
                    <polygon id="Fill-5" fill="#1D1D27" points="51.1458728 17.4164589 55.0820251 14.9662089 55.0820251 13.4322982 44.2787032 13.4322982 44.2787032 14.9662089 51.6583451 14.9662089 49.3703451 16.3857982 48.1445318 15.6743339 44.6927223 15.6743339 47.6885166 17.4294232 46.8836556 17.9289411 44.0570347 17.9289411 44.0570347 19.4628518 47.8586804 19.4628518 49.4586956 18.4667625 51.158947 19.4628518 55.4952518 19.4628518 55.4952518 17.9289411 52.0285851 17.9289411"></polygon>
                    <g id="Group-9" transform="translate(89.539048, 9.981598)">
                        <mask id="mask-2" fill="white">
                            <use xlink:href="#path-1"></use>
                        </mask>
                        <g id="Clip-8"></g>
                        <path d="M14.2812998,2.06165536 L14.2812998,0.116226786 L0.137497905,0.116226786 L0.137497905,2.06165536 L2.629536,2.06165536 L0.257741714,7.80306607 L0.257741714,9.48115536 L12.2153646,9.48115536 C13.1931627,9.48115536 13.9861379,8.69504821 13.9861379,7.72528036 L13.9861379,5.05522679 L12.0087512,5.05522679 L12.0087512,6.96431607 C12.0087512,7.2876375 11.7444922,7.54967321 11.4184274,7.54967321 L2.5382141,7.54967321 L4.83334552,2.06165536 L14.2812998,2.06165536 Z" id="Fill-7" fill="#1D1D27" mask="url(#mask-2)"></path>
                    </g>
                    <mask id="mask-4" fill="white">
                        <use xlink:href="#path-3"></use>
                    </mask>
                    <g id="Clip-11"></g>
                    <polygon id="Fill-10" fill="#1D1D27" mask="url(#mask-4)" points="89.9126552 6.77784821 103.584198 6.77784821 103.584198 4.83241964 89.9126552 4.83241964"></polygon>
                    <path d="M27.8832914,13.0423482 L37.2411124,13.0423482 L37.2411124,10.2787946 L27.8832914,10.2787946 L27.8832914,13.0423482 Z M37.2411124,17.0687411 C37.2411124,17.3922589 36.9766552,17.6544911 36.6503924,17.6544911 L27.8832914,17.6544911 L27.8832914,14.9092054 L37.2411124,14.9092054 L37.2411124,17.0687411 Z M25.3660952,6.85622321 L31.8497524,6.85622321 L31.3953219,8.4119375 L26.0005943,8.4119375 L26.0005943,19.5213482 L37.296579,19.5213482 C38.3056762,19.5213482 39.1238095,18.7100982 39.1238095,17.7094911 L39.1238095,8.4119375 L33.7578057,8.4119375 L34.2122362,6.85622321 L39.6475733,6.85622321 L39.6475733,4.9895625 L25.3660952,4.9895625 L25.3660952,6.85622321 Z" id="Fill-12" fill="#1D1D27" mask="url(#mask-4)"></path>
                    <path d="M58.9869775,10.2995571 L57.4499566,10.2995571 L57.4499566,12.0554321 L59.2704518,12.0554321 C59.7854994,12.0554321 60.2678613,11.8043964 60.560448,11.3838429 L61.0917394,10.6197357 L61.9047223,11.5728071 C62.1947337,11.8808071 62.600829,12.0554321 63.0257432,12.0554321 L64.6875642,12.0554321 L64.6875642,10.2995571 L63.370429,10.2995571 C63.2272061,10.2995571 63.0901242,10.2422 62.9900861,10.1406464 L62.4795947,9.48025357 L64.8351451,9.48025357 L64.8351451,7.78271786 L62.1150994,7.78271786 L62.1150994,7.05102143 L64.8351451,7.05102143 L64.8351451,5.35368214 L60.3383832,5.35368214 L60.7769661,4.768325 L58.6224823,4.768325 L58.0793051,5.48666429 C58.0032366,5.58723571 57.8837851,5.64636071 57.7572023,5.64636071 L57.378048,5.64636071 L57.378048,7.34389643 L58.2393661,7.34389643 C58.5327451,7.34389643 58.8126537,7.237825 59.0301623,7.05102143 L60.0784823,7.05102143 L60.0784823,7.78271786 L57.417469,7.78271786 L57.417469,9.48025357 L59.7829242,9.48025357 L59.474688,10.0306464 C59.3700937,10.1978071 59.185469,10.2995571 58.9869775,10.2995571" id="Fill-13" fill="#1D1D27" mask="url(#mask-4)"></path>
                    <path d="M67.1508785,6.90896429 L69.9923566,6.90896429 L69.9923566,9.64148214 C69.9923566,9.96460714 69.7280975,10.2268393 69.4020328,10.2268393 L67.1508785,10.2268393 L67.1508785,6.90896429 Z M65.2620404,12.0830893 L70.1104213,12.0830893 C71.0884175,12.0830893 71.8811947,11.2967857 71.8811947,10.3270179 L71.8811947,5.03601786 L65.2620404,5.03601786 L65.2620404,12.0830893 Z" id="Fill-14" fill="#1D1D27" mask="url(#mask-4)"></path>
                    <path d="M59.6256762,15.0176339 L69.6332495,15.0176339 L69.6332495,14.2717946 L59.6256762,14.2717946 L59.6256762,15.0176339 Z M69.6332495,17.2771518 C69.6332495,17.4983304 69.4525867,17.6776696 69.2295314,17.6776696 L59.6258743,17.6774732 L59.6258743,16.8613125 L69.6332495,16.8613125 L69.6332495,17.2771518 Z M69.6332495,12.4866518 L59.6258743,12.4866518 L57.7368381,12.4866518 L57.7368381,19.4628125 L59.6258743,19.4628125 L59.6258743,19.4628125 L69.6332495,19.4628125 L69.7515124,19.4628125 C70.7295086,19.4628125 71.5222857,18.6767054 71.5222857,17.7069375 L71.5222857,12.4866518 L69.6332495,12.4866518 Z" id="Fill-15" fill="#1D1D27" mask="url(#mask-4)"></path>
                    <path d="M79.2513082,7.06932857 C79.2513082,7.28500714 79.0750034,7.45982857 78.8574949,7.45982857 L76.3735787,7.45982857 L78.4424853,4.81472143 L76.0764358,4.81472143 L73.784672,7.70909643 L73.784672,9.21570357 L79.5446872,9.21570357 C80.3606415,9.21570357 81.0220815,8.55982857 81.0220815,7.75073929 L81.0220815,6.5979 L79.2513082,6.5979 L79.2513082,7.06932857 Z" id="Fill-16" fill="#1D1D27" mask="url(#mask-4)"></path>
                    <path d="M83.3298712,9.44968929 L83.3298712,7.90851071 L85.9164008,7.90851071 C86.8522027,7.90851071 87.585155,7.15599286 87.585155,6.19526071 L87.585155,4.97131429 L85.696317,4.97131429 L85.696317,5.71243929 C85.696317,5.89079643 85.5503208,6.03556429 85.3704503,6.03556429 L83.3298712,6.03556429 L83.3298712,4.84461786 L81.5000655,4.84461786 L81.5000655,10.0350464 C81.5000655,11.0048143 82.2930408,11.7909214 83.2708389,11.7909214 L87.853376,11.7909214 L87.853376,9.97651071 L83.8611627,9.97651071 C83.5677836,9.97651071 83.3298712,9.7406 83.3298712,9.44968929" id="Fill-17" fill="#1D1D27" mask="url(#mask-4)"></path>
                    <path d="M83.3298712,17.1080857 L83.3298712,15.6983179 L86.1095436,15.6983179 C86.9245074,15.6983179 87.585155,15.0432286 87.585155,14.2351214 L87.585155,12.760925 L85.696317,12.760925 L85.696317,13.5293536 C85.696317,13.6927821 85.5626027,13.8253714 85.3977874,13.8253714 L83.3298712,13.8253714 L83.3298712,12.4150143 L81.5000655,12.4150143 L81.5000655,17.6934429 C81.5000655,18.6632107 82.2930408,19.4493179 83.2708389,19.4493179 L87.853376,19.4493179 L87.853376,17.6349071 L83.8611627,17.6349071 C83.5677836,17.6349071 83.3298712,17.3989964 83.3298712,17.1080857" id="Fill-18" fill="#1D1D27" mask="url(#mask-4)"></path>
                    <path d="M76.0081524,15.2403839 L78.9554133,15.2403839 L78.9554133,14.3759018 L76.0081524,14.3759018 L76.0081524,15.2403839 Z M76.0081524,12.5029554 L78.9554133,12.5029554 L78.9554133,11.6384732 L76.0081524,11.6384732 L76.0081524,12.5029554 Z M74.1191162,19.4632054 L76.0079543,19.4632054 L76.0079543,17.6503661 L76.0081524,17.6509554 L76.0081524,17.1133304 L78.9554133,17.1133304 L78.9554133,17.2197946 C78.9554133,17.5488125 78.6864,17.8155625 78.3545905,17.8155625 L78.3545905,19.4628125 L79.0106819,19.4628125 C80.0199771,19.4628125 80.8381105,18.6515625 80.8381105,17.6509554 L80.8381105,9.7470625 L74.1191162,9.7470625 L74.1191162,19.4632054 Z" id="Fill-19" fill="#1D1D27" mask="url(#mask-4)"></path>
                    <path d="M16.9030705,5.07339821 L9.88772571,1.05427321 L0.997013333,6.11839821 L4.34105905,8.03338036 C4.59521524,8.1787375 4.90800762,8.17893393 5.16216381,8.03396964 L9.03334095,5.82375536 C9.54640762,5.53107679 10.1777371,5.53107679 10.6908038,5.82375536 L14.5344457,8.01805893 C14.7880076,8.16302321 15.1002057,8.16302321 15.3541638,8.01845179 L18.7071238,6.10700536 C18.7071238,6.10700536 16.9022781,5.07418393 16.9030705,5.07339821" id="Fill-20" fill="#00D263" mask="url(#mask-4)"></path>
                    <path d="M8.39367162,18.4186375 L4.58647924,16.2453518 C4.07321448,15.9522804 3.75705448,15.4103339 3.75705448,14.8239946 L3.75705448,10.4200661 C3.75705448,10.1285661 3.59996495,9.8592625 3.34521448,9.71370893 L-1.9809524e-05,7.8036375 L-1.9809524e-05,17.9091018 L8.80551162,22.9459232 L8.80551162,19.1249946 C8.80551162,18.8332982 8.6484221,18.5641911 8.39367162,18.4186375" id="Fill-21" fill="#0062FF" mask="url(#mask-4)"></path>
                    <path d="M11.3305722,18.4186375 L15.1375665,16.2453518 C15.6510293,15.9522804 15.9671893,15.4103339 15.9671893,14.8239946 L15.9671893,10.4198696 C15.9671893,10.1283696 16.1242789,9.8592625 16.3790293,9.71370893 L19.7242636,7.8036375 L19.7242636,7.8036375 L19.7242636,17.9091018 L10.9187322,22.9459232 L10.9187322,19.1249946 C10.9187322,18.8332982 11.0758217,18.5641911 11.3305722,18.4186375" id="Fill-22" fill="#FF502E" mask="url(#mask-4)"></path>
                </g>
            </g>
            <g id="编组" transform="translate(112.000000, 0.054116)" fill="#777777" font-family="PingFangSC-Medium, PingFang SC" font-size="16" font-weight="400" line-spacing="24">
                <g id="文本">
                    <text>
                        <tspan x="0" y="17">控制台总览</tspan>
                    </text>
                </g>
            </g>
        </g>
    </g>
</svg>